HIERARCHY
ROOT SpineBase
{
  OFFSET 0.000000 0.000000 0.000000
  CHANNELS 6 Xposition Yposition Zposition Zrotation Xrotation Yrotation
  JOINT SpineMid
  {
    OFFSET 0.000000 34.260413 -0.000000
    CHANNELS 3 Zrotation Xrotation Yrotation
    JOINT SpineShoulder
    {
      OFFSET -0.138845 25.251542 -1.090386
      CHANNELS 3 Zrotation Xrotation Yrotation
      JOINT Neck
      {
        OFFSET 0.060659 8.307412 -0.766330
        CHANNELS 3 Zrotation Xrotation Yrotation
        JOINT Head
        {
          OFFSET -0.995961 12.938555 7.970506
          CHANNELS 3 Zrotation Xrotation Yrotation
          End Site
          {
            OFFSET 0 0 0
          }
        }
      }
      JOINT ShoulderLeft
      {
        OFFSET 2.123568 -5.846399 -12.929609
        CHANNELS 3 Zrotation Xrotation Yrotation
        JOINT ElbowLeft
        {
          OFFSET 9.183393 -28.408085 -7.658553
          CHANNELS 3 Zrotation Xrotation Yrotation
          JOINT WristLeft
          {
            OFFSET 9.575951 -22.028385 -0.263564
            CHANNELS 3 Zrotation Xrotation Yrotation
            JOINT HandLeft
            {
              OFFSET -0.179202 -7.405302 3.326312
              CHANNELS 3 Zrotation Xrotation Yrotation
              JOINT HandTipLeft
              {
                OFFSET 2.091873 -8.066526 1.421184
                CHANNELS 3 Zrotation Xrotation Yrotation
                End Site
                {
                  OFFSET 0 0 0
                }
              }
              JOINT ThumbLeft
              {
                OFFSET -4.422666 -1.807037 3.209440
                CHANNELS 3 Zrotation Xrotation Yrotation
                End Site
                {
                  OFFSET 0 0 0
                }
              }
            }
          }
        }
      }
      JOINT ShoulderRight
      {
        OFFSET 11.143130 -5.222862 13.144973
        CHANNELS 3 Zrotation Xrotation Yrotation
        JOINT ElbowRight
        {
          OFFSET -18.725797 -25.600063 -5.851487
          CHANNELS 3 Zrotation Xrotation Yrotation
          JOINT WristRight
          {
            OFFSET 0.117205 -22.833628 3.891707
            CHANNELS 3 Zrotation Xrotation Yrotation
            JOINT HandRight
            {
              OFFSET 5.314425 -4.226464 2.796685
              CHANNELS 3 Zrotation Xrotation Yrotation
              JOINT HandTipRight
              {
                OFFSET -0.343234 -1.104809 -0.047022
                CHANNELS 3 Zrotation Xrotation Yrotation
                End Site
                {
                  OFFSET 0 0 0
                }
              }
              JOINT ThumbRight
              {
                OFFSET 0.285327 0.509829 -2.636990
                CHANNELS 3 Zrotation Xrotation Yrotation
                End Site
                {
                  OFFSET 0 0 0
                }
              }
            }
          }
        }
      }
    }
  }
  JOINT HipLeft
  {
    OFFSET -1.699114 1.334299 -8.047597
    CHANNELS 3 Zrotation Xrotation Yrotation
    JOINT KneeLeft
    {
      OFFSET 11.275854 -37.497310 0.602828
      CHANNELS 3 Zrotation Xrotation Yrotation
      JOINT AnkleLeft
      {
        OFFSET -0.353774 -39.852078 1.705444
        CHANNELS 3 Zrotation Xrotation Yrotation
        JOINT FootLeft
        {
          OFFSET 5.570777 -6.977391 -3.526992
          CHANNELS 3 Zrotation Xrotation Yrotation
          End Site
          {
            OFFSET 0 0 0
          }
        }
      }
    }
  }
  JOINT HipRight
  {
    OFFSET 2.460223 0.175728 -0.386286
    CHANNELS 3 Zrotation Xrotation Yrotation
    JOINT KneeRight
    {
      OFFSET -2.897930 -35.415022 4.976545
      CHANNELS 3 Zrotation Xrotation Yrotation
      JOINT AnkleRight
      {
        OFFSET 0.838326 -41.609221 6.867984
        CHANNELS 3 Zrotation Xrotation Yrotation
        JOINT FootRight
        {
          OFFSET 11.005872 -3.069438 -7.190326
          CHANNELS 3 Zrotation Xrotation Yrotation
          End Site
          {
            OFFSET 0 0 0
          }
        }
      }
    }
  }
}
MOTION
Frames: 11
Frame Time: 0.033333
-33.084633 88.862528 304.313248 -4.776843 -0.368048 -66.063475 0.055517 1.128820 65.900561 0.345604 -0.445007 -0.160991 3.902659 -1.925750 -0.201336 0.000000 0.000000 0.000000 -4.041018 0.483800 2.432613 7.969922 2.432215 -0.846133 6.760310 4.898674 1.748194 -0.976862 -14.721464 -2.911476 0.000000 0.000000 0.000000 0.000000 0.000000 0.000000 0.026894 2.039289 -0.053210 3.136116 -2.414001 0.418846 5.251057 -1.640473 0.308833 -15.117251 -1.184907 1.518706 0.000000 0.000000 0.000000 0.000000 0.000000 0.000000 3.481007 7.561202 65.707559 -6.425660 -4.419413 -0.086100 13.577734 6.742678 -4.636974 0.000000 0.000000 0.000000 -7.346052 22.283097 68.701559 -18.849351 -27.940213 -5.325472 10.155507 23.486540 14.895395 0.000000 0.000000 0.000000
-33.455274 88.161336 304.754397 -4.985833 -0.664775 -63.190764 -0.191573 1.060712 63.008537 0.439440 -0.148035 -0.165391 5.595342 -1.391266 -0.949623 0.000000 0.000000 0.000000 -4.384687 0.421957 2.697914 9.357064 2.524097 -0.937618 5.836322 4.246312 1.556663 -0.071418 -15.508746 -2.771108 0.000000 0.000000 0.000000 0.000000 0.000000 0.000000 0.283535 1.820495 -0.032516 8.381906 -3.959165 1.544763 -2.801637 0.701582 -1.505544 -1.303516 -3.780587 2.449722 0.000000 0.000000 0.000000 0.000000 0.000000 0.000000 3.474955 9.099709 63.059110 -7.992098 -5.070120 -0.453721 11.373299 4.905018 -4.412587 0.000000 0.000000 0.000000 -6.660595 24.814889 66.013117 -21.344753 -29.175366 -6.305960 11.900431 26.902072 18.890390 0.000000 0.000000 0.000000
-33.699548 87.566442 304.932421 -4.923567 -0.453186 -58.531496 -0.245108 0.642308 58.341009 0.561832 0.077651 -0.167753 7.453594 -0.425879 -1.796980 0.000000 0.000000 0.000000 -4.602079 0.336151 2.921663 10.527422 2.661127 -0.946194 4.321601 3.927051 0.995766 1.258006 -15.601517 -2.143744 0.000000 0.000000 0.000000 0.000000 0.000000 0.000000 0.499531 1.508894 -0.018319 16.555135 -6.070586 3.553437 -15.305786 5.205246 -2.959051 14.369750 -3.506821 2.647968 0.000000 0.000000 0.000000 0.000000 0.000000 0.000000 4.533593 9.679202 58.459422 -9.517887 -5.092526 -0.675852 7.159346 0.861722 -4.651668 0.000000 0.000000 0.000000 -4.102925 27.049695 61.133836 -25.605471 -32.575426 -8.353681 9.943032 29.249078 24.777840 0.000000 0.000000 0.000000
-34.102238 86.909927 305.207135 -5.038076 -0.185225 -55.397795 -0.355343 0.570255 55.214280 0.610256 0.220348 -0.174670 11.152740 -0.690038 -3.808809 0.000000 0.000000 0.000000 -4.938604 0.109255 3.150269 12.039109 2.993732 -0.888094 2.928742 3.788346 0.471740 3.500515 -15.935376 -1.137602 0.000000 0.000000 0.000000 0.000000 0.000000 0.000000 0.679212 1.043211 -0.006995 26.273158 -7.656662 6.184563 -28.600296 9.821934 -3.371688 30.244628 -2.376205 2.498018 0.000000 0.000000 0.000000 0.000000 0.000000 0.000000 5.899381 10.418104 55.267392 -11.321762 -4.758313 -0.812386 0.525518 -5.141465 -5.697254 0.000000 0.000000 0.000000 -1.789475 27.854780 57.638632 -29.262240 -35.614979 -10.427877 7.324895 30.495275 30.818582 0.000000 0.000000 0.000000
-34.864462 86.336389 305.386450 -5.552871 0.419932 -53.891878 -0.185976 0.554783 53.717037 0.650474 0.273661 -0.193519 12.199821 -0.296811 -4.035665 0.000000 0.000000 0.000000 -5.057558 -0.048372 3.423450 13.432054 3.225122 -0.829501 2.099552 3.385669 0.179135 3.940906 -15.638982 -0.832359 0.000000 0.000000 0.000000 0.000000 0.000000 0.000000 1.056077 0.536575 0.025371 35.539753 -8.547446 8.846154 -40.719333 13.620610 -3.252307 41.978013 0.853329 1.275455 0.000000 0.000000 0.000000 0.000000 0.000000 0.000000 7.955952 11.404334 53.555438 -13.107006 -4.002860 -0.795959 -14.641405 -16.701765 -10.871294 0.000000 0.000000 0.000000 -0.553069 28.782704 56.081950 -32.718482 -39.090144 -12.755709 4.552585 29.036286 31.807996 0.000000 0.000000 0.000000
-35.285760 85.893814 306.022861 -5.539299 0.596288 -54.073848 -0.506309 0.437871 53.907124 0.685570 0.365650 -0.201996 10.307091 0.065808 -2.641646 0.000000 0.000000 0.000000 -5.823849 -0.375458 3.718751 15.804618 3.715296 -0.825449 2.583582 3.196985 0.676539 3.532597 -15.221681 -0.959747 0.000000 0.000000 0.000000 0.000000 0.000000 0.000000 1.267406 0.084788 0.045633 43.135917 -8.250627 10.871890 -51.150364 16.586584 -2.326135 48.490204 2.220717 0.518474 0.000000 0.000000 0.000000 0.000000 0.000000 0.000000 8.795179 12.088334 53.600213 -14.636857 -3.316201 -0.779874 -14.797210 -16.854679 -10.271008 0.000000 0.000000 0.000000 -0.686108 29.646413 56.427928 -36.014819 -41.921996 -14.967052 0.790134 26.684107 34.615723 0.000000 0.000000 0.000000
-36.041750 85.707451 306.765893 -5.900833 0.697015 -55.368661 -0.719305 0.580306 55.212855 0.682578 0.320653 -0.222619 6.009021 0.645040 0.247848 0.000000 0.000000 0.000000 -6.649375 -0.611733 4.064903 18.349482 3.999508 -0.942354 4.736773 2.855562 2.142343 1.560660 -16.078060 -2.212938 0.000000 0.000000 0.000000 0.000000 0.000000 0.000000 1.606112 -0.221855 0.083304 48.552359 -7.631006 12.189617 -59.848341 19.562318 -0.221655 54.331490 -0.143363 1.756368 0.000000 0.000000 0.000000 0.000000 0.000000 0.000000 9.729414 13.373235 54.648006 -16.360920 -2.814670 -0.720977 -4.658655 -8.657770 -4.645826 0.000000 0.000000 0.000000 -2.329349 31.859627 58.405789 -39.876179 -47.835251 -18.147470 -4.558265 25.221303 37.642160 0.000000 0.000000 0.000000
-35.807902 85.444196 307.935980 -5.061692 0.338538 -56.648648 -1.436347 0.141498 56.480863 0.462896 0.683462 -0.226731 -0.323029 -0.202297 4.068083 0.000000 0.000000 0.000000 -7.813287 -0.878653 4.405476 20.801035 4.038782 -1.144876 6.666777 2.313040 3.567369 1.583900 -15.853586 -2.619309 0.000000 0.000000 0.000000 0.000000 0.000000 0.000000 1.723415 -0.582367 0.094807 52.013095 -6.660229 12.790717 -64.448722 21.990817 3.284256 55.771731 -3.944290 1.558547 0.000000 0.000000 0.000000 0.000000 0.000000 0.000000 8.527008 13.464681 56.115106 -17.625564 -3.241282 -0.957633 4.281038 -0.647285 -1.263206 0.000000 0.000000 0.000000 -3.175770 31.785603 59.814071 -40.775628 -47.585991 -18.342958 -6.959111 22.448444 40.582514 0.000000 0.000000 0.000000
-34.585389 85.251447 309.586078 -3.053722 -0.598035 -57.424216 -2.267950 -0.481058 57.254782 1.136794 0.490434 -0.116367 -9.506459 -2.215793 8.069856 0.000000 0.000000 0.000000 -11.012588 -0.368604 4.655010 24.064221 4.167962 -1.451055 9.181816 2.320233 5.614564 -0.467334 -15.638380 -3.939309 0.000000 0.000000 0.000000 0.000000 0.000000 0.000000 -3.116333 0.368732 0.424754 60.576952 -5.066473 13.313574 -70.620034 24.634115 7.726667 59.183254 -8.646239 0.940062 0.000000 0.000000 0.000000 0.000000 0.000000 0.000000 4.319356 12.041210 57.791516 -17.472089 -5.034534 -1.824161 14.180824 9.056642 1.003003 0.000000 0.000000 0.000000 -3.538778 29.468283 60.163838 -38.478269 -41.931938 -15.727528 -7.376867 19.124012 53.422692 0.000000 0.000000 0.000000
-32.729749 84.698441 311.386437 -0.412263 -1.841296 -58.299848 -2.635819 -0.979240 58.198332 1.764226 0.209034 0.033457 -19.722082 -5.373909 11.969007 0.000000 0.000000 0.000000 -15.371119 0.516673 4.967863 27.753341 4.440540 -1.862367 11.369755 2.795892 7.556849 -1.874493 -16.128764 -4.974876 0.000000 0.000000 0.000000 0.000000 0.000000 0.000000 -5.025050 1.705162 0.186573 59.954386 -2.669791 12.213191 -71.772396 27.209563 14.124956 58.328793 -18.109375 0.831999 0.000000 0.000000 0.000000 0.000000 0.000000 0.000000 -1.734396 9.494776 59.819939 -16.823140 -7.790573 -3.186494 23.946312 18.102212 1.427826 0.000000 0.000000 0.000000 -4.071990 26.290248 60.605684 -35.008664 -32.283739 -12.141284 -4.502009 19.011609 60.878768 0.000000 0.000000 0.000000
-30.392705 84.539683 313.262134 2.696939 -3.341819 -58.875061 -2.893097 -1.260398 58.950909 2.255219 0.005819 0.203242 -27.918802 -8.176476 14.501502 0.000000 0.000000 0.000000 -20.392802 1.466216 5.419630 31.434945 4.762296 -2.323875 12.759327 2.791829 9.127915 -1.771200 -15.274049 -5.388246 0.000000 0.000000 0.000000 0.000000 0.000000 0.000000 -4.416869 3.013595 -0.730371 55.554999 0.415169 10.986413 -81.345778 32.212897 26.161394 63.062329 -36.692550 7.864351 0.000000 0.000000 0.000000 0.000000 0.000000 0.000000 -9.371452 5.298618 61.401550 -15.051369 -10.888256 -4.865151 32.624635 24.846513 0.647596 0.000000 0.000000 0.000000 -4.329537 22.069523 60.781882 -33.102969 -21.045988 -9.526481 -4.335063 10.216141 64.890698 0.000000 0.000000 0.000000
